<?xml version="1.0" encoding="utf-8"?>
<!-- Generator: Adobe Illustrator 24.1.0, SVG Export Plug-In . SVG Version: 6.00 Build 0)  -->
<svg version="1.1" id="Layer_1" xmlns="http://www.w3.org/2000/svg" xmlns:xlink="http://www.w3.org/1999/xlink" x="0px" y="0px"
	 viewBox="0 0 435 147" style="enable-background:new 0 0 435 147;" xml:space="preserve">
<style type="text/css">
	.st0{clip-path:url(#SVGID_2_);}
	.st1{fill:url(#Rectangle_8_);}
	.st2{fill:url(#Path_4_);}
	.st3{fill:#F9E487;}
	.st4{fill:#F7768A;}
	.st5{fill:#95E5F0;}
	.st6{fill:#FFDDA9;}
	.st7{fill:#C68DDE;}
	.st8{fill:#9371BF;}
	.st9{fill:none;stroke:#FFFFFF;stroke-width:10;}
	.st10{fill:#FFFFFF;}
	.st11{font-family:'Bangers-Regular';}
	.st12{font-size:70px;}
</style>
<desc>Created with Sketch.</desc>
<g>
	<defs>
		<path id="SVGID_1_" d="M398.7,147H35.3c-19.7,0-35.8-16-35.8-35.8V35.8C-0.5,16,15.5,0,35.3,0h363.5c19.7,0,35.8,16,35.8,35.8
			v75.5C434.5,131,418.5,147,398.7,147z"/>
	</defs>
	<clipPath id="SVGID_2_">
		<use xlink:href="#SVGID_1_"  style="overflow:visible;"/>
	</clipPath>
	<g id="Page-4" class="st0">
		<g id="_x34_th_x5F_parents" transform="translate(-28.000000, -167.000000)">
			<g id="shows" transform="translate(28.000000, 167.000000)">
				<g id="series100" transform="translate(-19.000000, -11.000000)">
					
						<linearGradient id="Rectangle_8_" gradientUnits="userSpaceOnUse" x1="-402.0766" y1="443.8742" x2="-401.0766" y2="443.8742" gradientTransform="matrix(457 0 0 -457 183758 203079)">
						<stop  offset="0" style="stop-color:#C68DDE"/>
						<stop  offset="1" style="stop-color:#FFDDA9"/>
					</linearGradient>
					<rect id="Rectangle" x="9" class="st1" width="457" height="457"/>
					
						<linearGradient id="Path_4_" gradientUnits="userSpaceOnUse" x1="-402.0766" y1="443.5804" x2="-401.0766" y2="443.5804" gradientTransform="matrix(457 0 0 -311 183749 138120)">
						<stop  offset="0" style="stop-color:#9371BF"/>
						<stop  offset="0.14" style="stop-color:#9385C7"/>
						<stop  offset="0.54" style="stop-color:#94B9DD"/>
						<stop  offset="0.83" style="stop-color:#95D9EB"/>
						<stop  offset="1" style="stop-color:#95E5F0"/>
					</linearGradient>
					<path id="Path" class="st2" d="M0,258.3c0,0,55-102.1,130.6-101.1S380.4,76.7,398.3,11c0,0,58.7,92.2,58.7,156.4V322H0V258.3z"
						/>
				</g>
			</g>
		</g>
	</g>
</g>
<g id="Page-4_1_">
	<g id="_x34_th_x5F_parents_1_" transform="translate(-90.000000, -180.000000)">
		<g id="shows_1_" transform="translate(28.000000, 167.000000)">
			<g id="tv" transform="translate(67.000000, 13.000000)">
				<rect id="Rectangle_7_" x="65" y="68" class="st3" width="12" height="51"/>
				<rect id="Rectangle_1_" x="77" y="68" class="st4" width="12" height="51"/>
				<rect id="Rectangle_2_" x="89" y="68" class="st5" width="12" height="51"/>
				<rect id="Rectangle_3_" x="100" y="68" class="st6" width="12" height="51"/>
				<rect id="Rectangle_4_" x="111" y="68" class="st7" width="12" height="51"/>
				<rect id="Rectangle_5_" x="54" y="68" class="st8" width="12" height="51"/>
				<path id="Rectangle_6_" class="st9" d="M67,65h43c9.4,0,17,7.6,17,17v23c0,9.4-7.6,17-17,17H67c-9.4,0-17-7.6-17-17V82
					C50,72.6,57.6,65,67,65z"/>
				<circle id="Oval" class="st10" cx="67" cy="27" r="7"/>
				<circle id="Oval_1_" class="st10" cx="110.5" cy="28.5" r="5.5"/>
				<path id="Path_3_" class="st10" d="M75,62h24c0,0-2.9-7-12-7S75,62,75,62z"/>
				<polygon id="Path_1_" class="st10" points="76,61 66,30.1 67.7,29 82,58.9 				"/>
				<polygon id="Path_2_" class="st10" points="92,58.7 109.2,29 111,29.6 97.8,62 				"/>
			</g>
		</g>
	</g>
</g>
<text transform="matrix(1 0 0 1 157.0001 100.992)" class="st10 st11 st12">TV SHOWS</text>
</svg>
