<?xml version="1.0" encoding="utf-8"?>
<!-- Generator: Adobe Illustrator 24.1.0, SVG Export Plug-In . SVG Version: 6.00 Build 0)  -->
<svg version="1.1" id="Layer_1" xmlns="http://www.w3.org/2000/svg" xmlns:xlink="http://www.w3.org/1999/xlink" x="0px" y="0px"
	 viewBox="0 0 435 147" style="enable-background:new 0 0 435 147;" xml:space="preserve">
<style type="text/css">
	.st0{clip-path:url(#SVGID_2_);}
	.st1{fill:url(#Rectangle_9_);}
	.st2{fill:url(#Path_3_);}
	.st3{fill:url(#Path_4_);}
	.st4{fill:none;stroke:#FCFCFC;stroke-width:9;}
	.st5{fill:#F9F9FA;stroke:#F9F9F9;}
	.st6{fill:#F9E487;}
	.st7{fill:#95E5F0;}
	.st8{fill:#F7768A;}
	.st9{fill:#C68DDE;}
	.st10{fill:#9371BF;}
	.st11{fill:#FFFFFF;}
	.st12{font-family:'Bangers-Regular';}
	.st13{font-size:70px;}
</style>
<desc>Created with Sketch.</desc>
<g>
	<defs>
		<path id="SVGID_1_" d="M398.7,147.4H35.3c-19.7,0-35.8-16-35.8-35.8V36.1c0-19.7,16-35.8,35.8-35.8h363.5
			c19.7,0,35.8,16,35.8,35.8v75.5C434.5,131.4,418.5,147.4,398.7,147.4z"/>
	</defs>
	<clipPath id="SVGID_2_">
		<use xlink:href="#SVGID_1_"  style="overflow:visible;"/>
	</clipPath>
	<g id="Page-4" class="st0">
		<g id="_x34_th_x5F_parents" transform="translate(-503.000000, -167.000000)">
			<g id="music" transform="translate(503.000000, 167.000000)">
				<g id="music100" transform="translate(0.000000, -11.000000)">
					
						<linearGradient id="Rectangle_9_" gradientUnits="userSpaceOnUse" x1="-421.0766" y1="443.8734" x2="-420.0766" y2="443.8734" gradientTransform="matrix(457 0 0 -457 192432 203079)">
						<stop  offset="0" style="stop-color:#F7768A"/>
						<stop  offset="1" style="stop-color:#FFDDA9"/>
					</linearGradient>
					<rect id="Rectangle" y="0.4" class="st1" width="457" height="457"/>
					
						<linearGradient id="Path_3_" gradientUnits="userSpaceOnUse" x1="-420.1732" y1="443.4587" x2="-419.1732" y2="443.4587" gradientTransform="matrix(231 0 0 -275 97289.0078 122154)">
						<stop  offset="0" style="stop-color:#9371BF"/>
						<stop  offset="0.14" style="stop-color:#9385C7"/>
						<stop  offset="0.54" style="stop-color:#94B9DD"/>
						<stop  offset="0.83" style="stop-color:#95D9EB"/>
						<stop  offset="1" style="stop-color:#95E5F0"/>
					</linearGradient>
					<path id="Path" class="st2" d="M460,340.4l-74.4-0.3l-108.4,0.3c0,0-51.1-29.5-48-114.5c3.2-88.6,71.9-160.5,160.6-160.5
						c24.3,0,48.3,5.5,70.2,16.1"/>
					
						<linearGradient id="Path_4_" gradientUnits="userSpaceOnUse" x1="-417.7786" y1="442.676" x2="-418.7786" y2="442.676" gradientTransform="matrix(131 0 0 -157 54860 69579)">
						<stop  offset="0" style="stop-color:#C68DDE"/>
						<stop  offset="1" style="stop-color:#FFDDA9"/>
					</linearGradient>
					<path id="Path_1_" class="st3" d="M0,0.4l42.2,0.1l61.5-0.1c0,0,29,16.8,27.2,65.3c-1.8,50.6-40.8,91.6-91.1,91.6
						c-13.8,0-27.4-3.1-39.8-9.2"/>
				</g>
			</g>
		</g>
	</g>
</g>
<g id="Page-4_1_">
	<g id="_x34_th_x5F_parents_1_" transform="translate(-594.000000, -180.000000)">
		<g id="music_1_" transform="translate(503.000000, 167.000000)">
			<g id="múic" transform="translate(91.000000, 13.000000)">
				<path id="Rectangle_8_" class="st4" d="M89,64.4h52c6.6,0,12,5.4,12,12v35c0,6.6-5.4,12-12,12H89c-6.6,0-12-5.4-12-12v-35
					C77,69.7,82.4,64.4,89,64.4z"/>
				<circle id="Oval" class="st5" cx="103" cy="89.4" r="13"/>
				<circle id="Oval_1_" class="st5" cx="130" cy="84.4" r="6"/>
				<polygon id="Path_2_" class="st5" points="90,67.4 91.8,38.4 95.1,38.4 98,67.4 				"/>
				<ellipse id="Oval_2_" class="st5" cx="94.5" cy="37.4" rx="6.5" ry="7"/>
				<path id="Rectangle_1_" class="st6" d="M94.5,14.4L94.5,14.4c0.8,0,1.5,0.7,1.5,1.5v10c0,0.8-0.7,1.5-1.5,1.5l0,0
					c-0.8,0-1.5-0.7-1.5-1.5v-10C93,15,93.7,14.4,94.5,14.4z"/>
				<path id="Rectangle_2_" class="st7" d="M103,36.9L103,36.9c0-0.8,0.7-1.5,1.5-1.5h10c0.8,0,1.5,0.7,1.5,1.5l0,0
					c0,0.8-0.7,1.5-1.5,1.5h-10C103.7,38.4,103,37.7,103,36.9z"/>
				<path id="Rectangle_3_" class="st8" d="M100.4,42.8L100.4,42.8c0.6-0.6,1.6-0.6,2.2,0c0,0,0,0,0,0l7.1,7.2
					c0.6,0.6,0.6,1.6,0,2.2l0,0c-0.6,0.6-1.6,0.6-2.2,0c0,0,0,0,0,0l-7.1-7.2C99.8,44.4,99.8,43.5,100.4,42.8z"/>
				<path id="Rectangle_4_" class="st9" d="M78.8,52.7L78.8,52.7c-0.6-0.6-0.6-1.6,0-2.2l7.1-7.2c0.6-0.6,1.6-0.6,2.2,0c0,0,0,0,0,0
					l0,0c0.6,0.6,0.6,1.6,0,2.2l-7.1,7.2C80.3,53.3,79.4,53.3,78.8,52.7C78.8,52.7,78.8,52.7,78.8,52.7z"/>
				<path id="Rectangle_5_" class="st10" d="M101.3,30.3L101.3,30.3c-0.6-0.6-0.6-1.6,0-2.2l7.1-7.2c0.6-0.6,1.6-0.6,2.2,0
					c0,0,0,0,0,0l0,0c0.6,0.6,0.6,1.6,0,2.2l-7.1,7.2C102.9,30.9,101.9,30.9,101.3,30.3C101.3,30.3,101.3,30.3,101.3,30.3z"/>
				<path id="Rectangle_6_" class="st7" d="M78.8,20.9L78.8,20.9c0.6-0.6,1.6-0.6,2.2,0c0,0,0,0,0,0l7.1,7.2c0.6,0.6,0.6,1.6,0,2.2
					l0,0c-0.6,0.6-1.6,0.6-2.2,0c0,0,0,0,0,0l-7.1-7.2C78.1,22.5,78.1,21.5,78.8,20.9z"/>
				<path id="Rectangle_7_" class="st6" d="M72,36.9L72,36.9c0-0.8,0.7-1.5,1.5-1.5h10c0.8,0,1.5,0.7,1.5,1.5l0,0
					c0,0.8-0.7,1.5-1.5,1.5h-10C72.7,38.4,72,37.7,72,36.9z"/>
			</g>
		</g>
	</g>
</g>
<text transform="matrix(1 0 0 1 204.9999 102.3633)" class="st11 st12 st13">MUSIC</text>
</svg>
