<?xml version="1.0" encoding="utf-8"?>
<!-- Generator: Adobe Illustrator 24.1.0, SVG Export Plug-In . SVG Version: 6.00 Build 0)  -->
<svg version="1.1" id="Layer_1" xmlns="http://www.w3.org/2000/svg" xmlns:xlink="http://www.w3.org/1999/xlink" x="0px" y="0px"
	 viewBox="0 0 463 463" style="enable-background:new 0 0 463 463;" xml:space="preserve">
<style type="text/css">
	.st0{clip-path:url(#SVGID_2_);}
	.st1{fill:url(#Rectangle_1_);}
	.st2{fill:url(#Path_11_);}
	.st3{fill:url(#Path_12_);}
	.st4{fill:#FFDDA9;stroke:#FFFFFF;stroke-width:10;}
	.st5{fill:#FFFFFF;stroke:#FFFFFF;stroke-width:32;stroke-linecap:round;stroke-linejoin:round;}
	.st6{fill:#F7768A;stroke:#F7768A;stroke-width:5;stroke-linecap:square;stroke-linejoin:round;}
	.st7{fill:#F7768A;stroke:#F7768A;stroke-width:5;stroke-linecap:round;stroke-linejoin:round;}
	.st8{fill:#FFFFFF;stroke:#FFDDA9;stroke-width:5;}
	.st9{fill:none;stroke:#FFFFFF;stroke-width:10;}
	.st10{fill:#FFFFFF;}
	.st11{font-family:'Bangers-Regular';}
	.st12{font-size:109.3673px;}
</style>
<desc>Created with Sketch.</desc>
<g>
	<defs>
		<path id="SVGID_1_" d="M345.4,463H117.6C52.7,463,0,410.3,0,345.4V117.6C0,52.7,52.7,0,117.6,0h227.7C410.3,0,463,52.7,463,117.6
			v227.7C463,410.3,410.3,463,345.4,463z"/>
	</defs>
	<clipPath id="SVGID_2_">
		<use xlink:href="#SVGID_1_"  style="overflow:visible;"/>
	</clipPath>
	<g id="Page-4" class="st0">
		<g id="_x33_nd_x5F_parents" transform="translate(-978.000000, -1081.000000)">
			<g id="movie100" transform="translate(978.000000, 1081.000000)">
				<g transform="translate(-59.000000, -43.000000)">
					
						<linearGradient id="Rectangle_1_" gradientUnits="userSpaceOnUse" x1="-351.9142" y1="635.2274" x2="-350.9142" y2="635.2274" gradientTransform="matrix(520.7992 0 0 -520.7992 183292.625 331101.2812)">
						<stop  offset="0" style="stop-color:#F7768A"/>
						<stop  offset="1" style="stop-color:#9371BF"/>
					</linearGradient>
					<rect id="Rectangle" x="16" y="15" class="st1" width="520.8" height="520.8"/>
					
						<linearGradient id="Path_11_" gradientUnits="userSpaceOnUse" x1="-351.4274" y1="635.1066" x2="-350.4274" y2="635.1066" gradientTransform="matrix(327 0 0 -361 114982.7734 229497)">
						<stop  offset="0" style="stop-color:#F7768A"/>
						<stop  offset="1" style="stop-color:#FFDDA9"/>
					</linearGradient>
					<path id="Path" class="st2" d="M66,404c0,0,22.2-338.2,327-361H66V404z"/>
					
						<linearGradient id="Path_12_" gradientUnits="userSpaceOnUse" x1="-350.8838" y1="635.112" x2="-349.8838" y2="635.112" gradientTransform="matrix(231 0 0 -366 81346.1641 232774)">
						<stop  offset="0" style="stop-color:#9371BF"/>
						<stop  offset="0.14" style="stop-color:#9385C7"/>
						<stop  offset="0.54" style="stop-color:#94B9DD"/>
						<stop  offset="0.83" style="stop-color:#95D9EB"/>
						<stop  offset="1" style="stop-color:#95E5F0"/>
					</linearGradient>
					<path id="Path_1_" class="st3" d="M523,140c0,0-27.5,326.4-231,366h231V140z"/>
				</g>
			</g>
		</g>
	</g>
</g>
<g id="Page-4_1_">
	<g id="_x33_nd_x5F_parents_1_" transform="translate(-1059.000000, -1108.000000)">
		<g id="movie100_1_" transform="translate(978.000000, 1081.000000)">
			<g id="popcorn" transform="translate(-59.000000, -43.000000)">
				<g transform="translate(156.000000, 75.000000)">
					<path id="Path_10_" class="st4" d="M119.7,122.9c0,0-9.2-34.8,24.2-38.3c0,0-2.1-41.7,41.2-24c0,0,4.3-29.8,37.6-26.9
						s33.4,26.8,32.3,44.5c0,0,52.2-6.1,36.6,44.7l-33.9,34.6l-72.6,24l-60.4-41L119.7,122.9z"/>
					<polygon id="Path_9_" class="st5" points="111.5,127.9 204.2,160.3 301.5,123.5 273.7,271.3 208.9,301.5 140.7,268.9 					"/>
					<polygon id="Path_2_" class="st6" points="113.5,133.5 142.2,266.5 162.5,275.5 148.6,145.9 					"/>
					<polygon id="Path_3_" class="st7" points="158.5,147.5 173.1,279.1 197.5,290.5 197.5,161.2 					"/>
					<polygon id="Path_4_" class="st7" points="208.5,162.5 248.5,147.5 239.7,280.5 210.1,292.5 					"/>
					<polygon id="Path_5_" class="st7" points="260.5,143.6 296.5,130.5 272.2,267.1 250.5,277.5 					"/>
					<path id="Path_6_" class="st8" d="M298.8,259.4c0,0-12.2,7.5-7.1-9.1c0,0-1.3-23.7,17.4-19.2c18.7,4.5,6.4,27,6.4,27
						s2.6,5.1-1.9,7.1C309.1,267.1,298.8,259.4,298.8,259.4z"/>
					<path id="Path_7_" class="st8" d="M262,291.7c0,0-6.3,10.4-14.5,1.3s-5.1-42.5,19.4-42.5c24.5,0,22,37.4,18,40.5
						c0,0,3,4.2-3.5,7.5C274.9,301.8,262,296.4,262,291.7z"/>
					<path id="Path_8_" class="st9" d="M151.1,122.5c0,0-8-25.3,11.9-33.7s33.4,8.2,35.5,18.4c0,0,34.1-23.2,30.7,12.3"/>
				</g>
			</g>
		</g>
	</g>
</g>
<text transform="matrix(1 0 0 1 94.0957 422.8757)" class="st10 st11 st12">MOVIES</text>
</svg>
