<?xml version="1.0" encoding="utf-8"?>
<!-- Generator: Adobe Illustrator 24.1.0, SVG Export Plug-In . SVG Version: 6.00 Build 0)  -->
<svg version="1.1" id="Layer_1" xmlns="http://www.w3.org/2000/svg" xmlns:xlink="http://www.w3.org/1999/xlink" x="0px" y="0px"
	 viewBox="0 0 463 463" style="enable-background:new 0 0 463 463;" xml:space="preserve">
<style type="text/css">
	.st0{clip-path:url(#SVGID_2_);}
	.st1{fill:url(#Rectangle_9_);}
	.st2{fill:url(#Path_3_);}
	.st3{fill:url(#Path_4_);}
	.st4{fill:#FFFFFF;}
	.st5{font-family:'Bangers-Regular';}
	.st6{font-size:109.3673px;}
	.st7{fill:none;stroke:#FCFCFC;stroke-width:20;}
	.st8{fill:#F9F9FA;stroke:#F9F9F9;}
	.st9{fill:#F9E487;}
	.st10{fill:#95E5F0;}
	.st11{fill:#F7768A;}
	.st12{fill:#C68DDE;}
	.st13{fill:#9371BF;}
</style>
<g>
	<defs>
		<path id="SVGID_1_" d="M345.4,463H117.6C52.7,463,0,410.3,0,345.4V117.6C0,52.7,52.7,0,117.6,0h227.7C410.3,0,463,52.7,463,117.6
			v227.7C463,410.3,410.3,463,345.4,463z"/>
	</defs>
	<clipPath id="SVGID_2_">
		<use xlink:href="#SVGID_1_"  style="overflow:visible;"/>
	</clipPath>
	<desc>Created with Sketch.</desc>
	<g id="Page-4" class="st0">
		<g id="_x33_nd_x5F_parents" transform="translate(-503.000000, -1081.000000)">
			<g id="music" transform="translate(503.000000, 1081.000000)">
				<g id="music100" transform="translate(0.000000, -11.000000)">
					
						<linearGradient id="Rectangle_9_" gradientUnits="userSpaceOnUse" x1="-399.0488" y1="602.1893" x2="-398.0357" y2="602.1893" gradientTransform="matrix(457 0 0 -457 182366.3125 275443)">
						<stop  offset="0" style="stop-color:#F7768A"/>
						<stop  offset="1" style="stop-color:#FFDDA9"/>
					</linearGradient>
					<rect id="Rectangle" x="1" y="11" class="st1" width="463" height="463"/>
					
						<linearGradient id="Path_3_" gradientUnits="userSpaceOnUse" x1="-398.1776" y1="601.9793" x2="-397.1645" y2="601.9793" gradientTransform="matrix(231 0 0 -275 92209.0156 165879)">
						<stop  offset="0" style="stop-color:#9371BF"/>
						<stop  offset="0.14" style="stop-color:#9385C7"/>
						<stop  offset="0.54" style="stop-color:#94B9DD"/>
						<stop  offset="0.83" style="stop-color:#95D9EB"/>
						<stop  offset="1" style="stop-color:#95E5F0"/>
					</linearGradient>
					<path id="Path" class="st2" d="M464,474l-75.4-0.3L278.7,474c0,0-51.8-29.8-48.6-116c3.3-89.8,72.9-162.6,162.8-162.6
						c24.6,0,49,5.5,71.1,16.3"/>
					
						<linearGradient id="Path_4_" gradientUnits="userSpaceOnUse" x1="-395.8525" y1="601.6081" x2="-396.8656" y2="601.6081" gradientTransform="matrix(131 0 0 -157 51990.3945 94543)">
						<stop  offset="0" style="stop-color:#C68DDE"/>
						<stop  offset="1" style="stop-color:#FFDDA9"/>
					</linearGradient>
					<path id="Path_1_" class="st3" d="M1,11l42.8,0.2l62.3-0.2c0,0,29.4,17,27.6,66.2c-1.9,51.2-41.3,92.9-92.3,92.9
						c-14,0-27.8-3.2-40.3-9.3"/>
				</g>
			</g>
		</g>
	</g>
</g>
<text transform="matrix(1 0 0 1 114.0147 429.6961)" class="st4 st5 st6">MUSIC</text>
<g id="Page-4_1_">
	<g id="_x33_nd_x5F_parents_1_" transform="translate(-613.000000, -1111.000000)">
		<g id="music_1_" transform="translate(503.000000, 1081.000000)">
			<g id="music100_1_" transform="translate(0.000000, -11.000000)">
				<g id="music_2_" transform="translate(110.000000, 41.000000)">
					<path id="Rectangle_8_" class="st7" d="M189.4,155h98.7c27.7,0,50.1,22.4,50.1,50.1v50.7c0,27.7-22.4,50.1-50.1,50.1h-98.7
						c-27.7,0-50.1-22.4-50.1-50.1v-50.7C139.2,177.4,161.7,155,189.4,155z"/>
					<ellipse id="Oval" class="st8" cx="207.8" cy="219" rx="35.5" ry="35"/>
					<circle id="Oval_1_" class="st8" cx="279.2" cy="204" r="15"/>
					<polygon id="Path_2_" class="st8" points="174.2,161 178.6,86 186.9,86 194.2,161 					"/>
					<circle id="Oval_2_" class="st8" cx="182.8" cy="81.5" r="17.5"/>
					<path id="Rectangle_1_" class="st9" d="M182.2,24L182.2,24c2.3,0,4,1.8,4,4V54c0,2.2-1.8,4-4,4h-0.1c-2.2,0-4-1.8-4-4V28
						C178.2,25.8,180,24,182.2,24z"/>
					<path id="Rectangle_2_" class="st10" d="M205.8,82.5L205.8,82.5c0-2.3,1.8-4,4-4h27.1c2.2,0,4,1.8,4,4v0.1c0,2.2-1.8,4-4,4
						h-27.1C207.5,86.5,205.8,84.7,205.8,82.5z"/>
					<path id="Rectangle_3_" class="st11" d="M199.1,97.7l0.1-0.1c1.5-1.5,4-1.5,5.6,0l18.8,18.7c1.6,1.5,1.6,4.1,0,5.6c0,0,0,0,0,0
						l-0.1,0.1c-1.5,1.5-4,1.5-5.6,0l-18.8-18.7C197.5,101.8,197.5,99.3,199.1,97.7C199.1,97.7,199.1,97.7,199.1,97.7z"/>
					<path id="Rectangle_4_" class="st12" d="M142,123.3l-0.1-0.1c-1.6-1.5-1.6-4.1,0-5.6c0,0,0,0,0,0l18.8-18.7
						c1.5-1.5,4-1.5,5.6,0l0.1,0.1c1.6,1.5,1.6,4.1,0,5.6c0,0,0,0,0,0l-18.8,18.7C146.1,124.8,143.6,124.8,142,123.3z"/>
					<path id="Rectangle_5_" class="st13" d="M201.7,65.3l-0.1-0.1c-1.6-1.5-1.6-4.1,0-5.6c0,0,0,0,0,0l18.8-18.7
						c1.5-1.5,4-1.5,5.6,0L226,41c1.6,1.5,1.6,4.1,0,5.6c0,0,0,0,0,0l-18.8,18.7C205.7,66.8,203.2,66.8,201.7,65.3z"/>
					<path id="Rectangle_6_" class="st10" d="M141.9,41l0.1-0.1c1.5-1.5,4-1.5,5.6,0l18.8,18.7c1.6,1.5,1.6,4.1,0,5.6c0,0,0,0,0,0
						l-0.1,0.1c-1.5,1.5-4,1.5-5.6,0l-18.8-18.7C140.4,45,140.4,42.5,141.9,41C141.9,41,141.9,41,141.9,41z"/>
					<path id="Rectangle_7_" class="st9" d="M124.8,82.5L124.8,82.5c0-2.3,1.8-4,4-4h27.1c2.2,0,4,1.8,4,4v0.1c0,2.2-1.8,4-4,4
						h-27.1C126.5,86.5,124.8,84.7,124.8,82.5z"/>
				</g>
			</g>
		</g>
	</g>
</g>
</svg>
