<?xml version="1.0" encoding="utf-8"?>
<!-- Generator: Adobe Illustrator 24.1.0, SVG Export Plug-In . SVG Version: 6.00 Build 0)  -->
<svg version="1.1" id="Layer_1" xmlns="http://www.w3.org/2000/svg" xmlns:xlink="http://www.w3.org/1999/xlink" x="0px" y="0px"
	 viewBox="0 0 435 435" style="enable-background:new 0 0 435 435;" xml:space="preserve">
<style type="text/css">
	.st0{clip-path:url(#SVGID_2_);}
	.st1{fill:url(#Rectangle_1_);}
	.st2{fill:url(#Path_11_);}
	.st3{fill:url(#Path_12_);}
	.st4{fill:#FFDDA9;stroke:#FFFFFF;stroke-width:10;}
	.st5{fill:#FFFFFF;stroke:#FFFFFF;stroke-width:32;stroke-linecap:round;stroke-linejoin:round;}
	.st6{fill:#F7768A;stroke:#F7768A;stroke-width:5;stroke-linecap:square;stroke-linejoin:round;}
	.st7{fill:#F7768A;stroke:#F7768A;stroke-width:5;stroke-linecap:round;stroke-linejoin:round;}
	.st8{fill:#FFFFFF;stroke:#FFDDA9;stroke-width:5;}
	.st9{fill:none;stroke:#FFFFFF;stroke-width:10;}
	.st10{fill:#FFFFFF;}
	.st11{font-family:'Bangers-Regular';}
	.st12{font-size:109.3673px;}
</style>
<desc>Created with Sketch.</desc>
<g>
	<defs>
		<path id="SVGID_1_" d="M335.1,448H107.4c-65,0-117.6-52.7-117.6-117.6V102.6c0-65,52.7-117.6,117.6-117.6h227.7
			c65,0,117.6,52.7,117.6,117.6v227.7C452.7,395.3,400.1,448,335.1,448z"/>
	</defs>
	<clipPath id="SVGID_2_">
		<use xlink:href="#SVGID_1_"  style="overflow:visible;"/>
	</clipPath>
	<g id="Page-4" class="st0">
		<g id="_x33_nd_x5F_parents" transform="translate(-978.000000, -1081.000000)">
			<g id="movie100" transform="translate(978.000000, 1081.000000)">
				<g transform="translate(-59.000000, -43.000000)">
					
						<linearGradient id="Rectangle_1_" gradientUnits="userSpaceOnUse" x1="-362.1787" y1="620.2274" x2="-361.1787" y2="620.2274" gradientTransform="matrix(520.7992 0 0 -520.7992 188628.1094 323274.3125)">
						<stop  offset="0" style="stop-color:#F7768A"/>
						<stop  offset="1" style="stop-color:#9371BF"/>
					</linearGradient>
					<rect id="Rectangle" x="5.7" class="st1" width="520.8" height="520.8"/>
					
						<linearGradient id="Path_11_" gradientUnits="userSpaceOnUse" x1="-361.6919" y1="620.1066" x2="-360.6919" y2="620.1066" gradientTransform="matrix(327 0 0 -361 118329 224067)">
						<stop  offset="0" style="stop-color:#F7768A"/>
						<stop  offset="1" style="stop-color:#FFDDA9"/>
					</linearGradient>
					<path id="Path" class="st2" d="M55.7,389c0,0,22.2-338.2,327-361h-327V389z"/>
					
						<linearGradient id="Path_12_" gradientUnits="userSpaceOnUse" x1="-361.1483" y1="620.112" x2="-360.1483" y2="620.112" gradientTransform="matrix(231 0 0 -366 83707 227269)">
						<stop  offset="0" style="stop-color:#9371BF"/>
						<stop  offset="0.14" style="stop-color:#9385C7"/>
						<stop  offset="0.54" style="stop-color:#94B9DD"/>
						<stop  offset="0.83" style="stop-color:#95D9EB"/>
						<stop  offset="1" style="stop-color:#95E5F0"/>
					</linearGradient>
					<path id="Path_1_" class="st3" d="M512.7,125c0,0-27.5,326.4-231,366h231V125z"/>
				</g>
			</g>
		</g>
	</g>
</g>
<g id="Page-4_1_">
	<g id="_x33_nd_x5F_parents_1_" transform="translate(-1059.000000, -1108.000000)">
		<g id="movie100_1_" transform="translate(978.000000, 1081.000000)">
			<g id="popcorn" transform="translate(-59.000000, -43.000000)">
				<g transform="translate(156.000000, 75.000000)">
					<path id="Path_10_" class="st4" d="M109.4,107.9c0,0-9.2-34.8,24.2-38.3c0,0-2.1-41.7,41.2-24c0,0,4.3-29.8,37.6-26.9
						s33.4,26.8,32.3,44.5c0,0,52.2-6.1,36.6,44.7l-33.9,34.6l-72.6,24l-60.4-41L109.4,107.9z"/>
					<polygon id="Path_9_" class="st5" points="101.2,112.9 193.9,145.3 291.2,108.5 263.4,256.3 198.6,286.5 130.5,253.9 					"/>
					<polygon id="Path_2_" class="st6" points="103.2,118.5 131.9,251.5 152.2,260.5 138.3,130.9 					"/>
					<polygon id="Path_3_" class="st7" points="148.2,132.5 162.8,264.1 187.2,275.5 187.2,146.2 					"/>
					<polygon id="Path_4_" class="st7" points="198.2,147.5 238.2,132.5 229.5,265.5 199.8,277.5 					"/>
					<polygon id="Path_5_" class="st7" points="250.2,128.6 286.2,115.5 261.9,252.1 240.2,262.5 					"/>
					<path id="Path_6_" class="st8" d="M288.6,244.4c0,0-12.2,7.5-7.1-9.1c0,0-1.3-23.7,17.4-19.2c18.7,4.5,6.4,27,6.4,27
						s2.6,5.1-1.9,7.1S288.6,244.4,288.6,244.4z"/>
					<path id="Path_7_" class="st8" d="M251.8,276.7c0,0-6.3,10.4-14.5,1.3s-5.1-42.5,19.4-42.5c24.5,0,22,37.4,18,40.5
						c0,0,3,4.2-3.5,7.5C264.6,286.8,251.8,281.4,251.8,276.7z"/>
					<path id="Path_8_" class="st9" d="M140.8,107.5c0,0-8-25.3,11.9-33.7s33.4,8.2,35.5,18.4c0,0,34.1-23.2,30.7,12.3"/>
				</g>
			</g>
		</g>
	</g>
</g>
<text transform="matrix(1 0 0 1 83.8312 407.8757)" class="st10 st11 st12">MOVIES</text>
</svg>
