<?xml version="1.0" encoding="UTF-8"?>
<svg width="227px" height="289px" viewBox="0 0 227 289" version="1.1" xmlns="http://www.w3.org/2000/svg" xmlns:xlink="http://www.w3.org/1999/xlink">
    <!-- Generator: Sketch 53.1 (72631) - https://sketchapp.com -->
    <title>popcorn</title>
    <desc>Created with Sketch.</desc>
    <g id="Page-4" stroke="none" stroke-width="1" fill="none" fill-rule="evenodd">
        <g id="3nd_parents" transform="translate(-1059.000000, -1108.000000)">
            <g id="movie100" transform="translate(978.000000, 1081.000000)">
                <g transform="translate(-59.000000, -43.000000)" id="popcorn">
                    <g transform="translate(156.000000, 75.000000)">
                        <path d="M8.29171945,89.4372741 C8.29171945,89.4372741 -0.944918709,54.6476252 32.4428116,51.1136676 C32.4428116,51.1136676 30.3057071,9.39133152 73.6454622,27.0701347 C73.6454622,27.0701347 77.9015601,-2.68001853 111.28929,0.195829615 C144.677021,3.07167776 144.722298,27.0250587 143.635635,44.7218923 C143.635635,44.7218923 195.822641,38.6456489 180.201855,89.4372741 L146.270794,124.019573 L73.6454622,148 L13.2632041,106.980849 L8.29171945,89.4372741 Z" id="Path" stroke="#FFFFFF" stroke-width="10" fill="#FFDDA9" fill-rule="nonzero"></path>
                        <polygon id="Path" stroke="#FFFFFF" stroke-width="32" fill="#FFFFFF" fill-rule="nonzero" stroke-linecap="round" stroke-linejoin="round" points="0.11974026 94.4060744 92.8046483 126.807391 190.11974 90 162.320586 237.833257 97.5070378 268 29.3449552 235.418476"></polygon>
                        <polygon id="Path" stroke="#F7768A" stroke-width="5" fill="#F7768A" fill-rule="nonzero" stroke-linecap="square" stroke-linejoin="round" points="2.11974026 100 30.8037751 232.984984 51.1197403 242 37.2183867 112.361908"></polygon>
                        <polygon id="Path" stroke="#F7768A" stroke-width="5" fill="#F7768A" fill-rule="nonzero" stroke-linecap="round" stroke-linejoin="round" points="47.1197403 114 61.7025078 245.638085 86.1197403 257 86.1197403 127.700868"></polygon>
                        <polygon id="Path" stroke="#F7768A" stroke-width="5" fill="#F7768A" fill-rule="nonzero" stroke-linecap="round" stroke-linejoin="round" points="97.1197403 129.032572 137.11974 114 128.364921 246.972143 98.7164742 259"></polygon>
                        <polygon id="Path" stroke="#F7768A" stroke-width="5" fill="#F7768A" fill-rule="nonzero" stroke-linecap="round" stroke-linejoin="round" points="149.125593 110.085142 185.11974 97 160.782635 233.589722 139.11974 244"></polygon>
                        <path d="M187.467351,225.894645 C187.467351,225.894645 175.239672,233.434781 180.38249,216.788896 C180.38249,216.788896 179.096785,193.061762 197.752986,197.569647 C216.409188,202.077533 204.1905,224.607963 204.1905,224.607963 C204.1905,224.607963 206.761909,229.754691 202.257448,231.689212 C197.752986,233.623734 187.467351,225.894645 187.467351,225.894645 Z" id="Path" stroke="#FFDDA9" stroke-width="5" fill="#FFFFFF" fill-rule="nonzero"></path>
                        <path d="M150.649804,258.201135 C150.649804,258.201135 144.312868,268.571797 136.165379,259.5179 C128.017889,250.464003 131.068671,217 155.574509,217 C180.080347,217 177.545573,254.441542 173.571408,257.492806 C173.571408,257.492806 176.613138,261.715536 170.067988,264.993828 C163.522838,268.272119 150.649804,262.887003 150.649804,258.201135 Z" id="Path" stroke="#FFDDA9" stroke-width="5" fill="#FFFFFF" fill-rule="nonzero"></path>
                        <path d="M39.7192244,89 C39.7192244,89 31.6823768,63.6833451 51.6390434,55.2920199 C71.5957099,46.9006947 85.0506571,63.4960785 87.1817762,73.7333169 C87.1817762,73.7333169 121.261622,50.5479338 117.88434,86.0661573" id="Path" stroke="#FFFFFF" stroke-width="10"></path>
                    </g>
                </g>
            </g>
        </g>
    </g>
</svg>