<?xml version="1.0" encoding="UTF-8"?>
<svg width="225px" height="292px" viewBox="0 0 225 292" version="1.1" xmlns="http://www.w3.org/2000/svg" xmlns:xlink="http://www.w3.org/1999/xlink">
    <!-- Generator: Sketch 53.1 (72631) - https://sketchapp.com -->
    <title>music</title>
    <desc>Created with Sketch.</desc>
    <g id="Page-4" stroke="none" stroke-width="1" fill="none" fill-rule="evenodd">
        <g id="3nd_parents" transform="translate(-613.000000, -1111.000000)">
            <g id="music" transform="translate(503.000000, 1081.000000)">
                <g id="music100" transform="translate(0.000000, -11.000000)">
                    <g id="music" transform="translate(110.000000, 41.000000)">
                        <rect id="Rectangle" stroke="#FCFCFC" stroke-width="20" x="15.1197403" y="131" width="199" height="151" rx="50.13"></rect>
                        <ellipse id="Oval" stroke="#F9F9F9" fill="#F9F9FA" fill-rule="nonzero" cx="83.6197403" cy="195" rx="35.5" ry="35"></ellipse>
                        <circle id="Oval" stroke="#F9F9F9" fill="#F9F9FA" fill-rule="nonzero" cx="155.11974" cy="180" r="15"></circle>
                        <polygon id="Path" stroke="#F9F9F9" fill="#F9F9FA" fill-rule="nonzero" points="50.1197403 137 54.5040761 62 62.7721424 62 70.1197403 137"></polygon>
                        <circle id="Oval" stroke="#F9F9F9" fill="#F9F9FA" fill-rule="nonzero" cx="58.6197403" cy="57.5" r="17.5"></circle>
                        <rect id="Rectangle" fill="#F9E487" fill-rule="nonzero" x="54.1197403" y="0" width="8" height="34" rx="3.97"></rect>
                        <path d="M99.0897403,41 L99.1497403,41 C101.342311,41 103.11974,42.7774295 103.11974,44.97 L103.11974,72.03 C103.11974,74.2225705 101.342311,76 99.1497403,76 L99.0897403,76 C96.8971698,76 95.1197403,74.2225705 95.1197403,72.03 L95.1197403,44.97 C95.1197403,42.7774295 96.8971698,41 99.0897403,41 Z" id="Rectangle" fill="#95E5F0" fill-rule="nonzero" transform="translate(99.119740, 58.500000) rotate(-90.000000) translate(-99.119740, -58.500000) "></path>
                        <path d="M87.0734576,68.5875947 L87.2417241,68.5881448 C89.4241526,68.5952796 91.1915892,70.3627162 91.1987241,72.5451447 L91.2853152,99.0318063 C91.2924832,101.224365 89.520874,103.007596 87.3283153,103.014764 C87.3196628,103.014792 87.3110102,103.014792 87.3023577,103.014764 L87.1340912,103.014214 C84.9516627,103.007079 83.1842261,101.239642 83.1770912,99.0572138 L83.0905,72.5705523 C83.083332,70.3779935 84.8549413,68.5947627 87.0475,68.5875947 C87.0561525,68.5875664 87.0648051,68.5875664 87.0734576,68.5875947 Z" id="Rectangle" fill="#F7768A" fill-rule="nonzero" transform="translate(87.187908, 85.801179) rotate(-45.000000) translate(-87.187908, -85.801179) "></path>
                        <path d="M29.9910252,69.8831369 L30.1592917,69.8825868 C32.3518504,69.8754188 34.1350813,71.647028 34.1422493,73.8395868 C34.1422776,73.8482393 34.1422776,73.8568919 34.1422493,73.8655444 L34.0556581,100.352206 C34.0485232,102.534634 32.2810867,104.302071 30.0986581,104.309206 L29.9303917,104.309756 C27.7378329,104.316924 25.9546021,102.545315 25.9474341,100.352756 C25.9474058,100.344103 25.9474058,100.335451 25.9474341,100.326798 L26.0340253,73.8401369 C26.0411601,71.6577083 27.8085967,69.8902718 29.9910252,69.8831369 Z" id="Rectangle" fill="#C68DDE" fill-rule="nonzero" transform="translate(30.044842, 87.096171) rotate(-135.000000) translate(-30.044842, -87.096171) "></path>
                        <path d="M89.6007814,11.8289834 L89.7690479,11.8284333 C91.9616066,11.8212653 93.7448375,13.5928745 93.7520055,15.7854332 C93.7520338,15.7940858 93.7520338,15.8027383 93.7520055,15.8113909 L93.6654143,42.2980524 C93.6582794,44.4804809 91.8908428,46.2479175 89.7084143,46.2550523 L89.5401478,46.2556024 C87.3475891,46.2627704 85.5643583,44.4911612 85.5571903,42.2986025 C85.557162,42.2899499 85.557162,42.2812974 85.5571903,42.2726449 L85.6437814,15.7859833 C85.6509163,13.6035548 87.4183529,11.8361182 89.6007814,11.8289834 Z" id="Rectangle" fill="#9371BF" fill-rule="nonzero" transform="translate(89.654598, 29.042018) rotate(-135.000000) translate(-89.654598, -29.042018) "></path>
                        <path d="M29.9313504,11.8316201 L30.0996169,11.8321702 C32.2820454,11.8393051 34.049482,13.6067416 34.0566168,15.7891702 L34.143208,42.2758317 C34.150376,44.4683904 32.3787668,46.2516213 30.186208,46.2587893 C30.1775555,46.2588176 30.168903,46.2588176 30.1602504,46.2587893 L29.991984,46.2582392 C27.8095554,46.2511043 26.0421189,44.4836678 26.034984,42.3012392 L25.9483928,15.8145777 C25.9412248,13.622019 27.7128341,11.8387881 29.9053928,11.8316201 C29.9140453,11.8315918 29.9226979,11.8315918 29.9313504,11.8316201 Z" id="Rectangle" fill="#95E5F0" fill-rule="nonzero" transform="translate(30.045800, 29.045205) rotate(-45.000000) translate(-30.045800, -29.045205) "></path>
                        <path d="M18.0897403,41 L18.1497403,41 C20.3423107,41 22.1197403,42.7774295 22.1197403,44.97 L22.1197403,72.03 C22.1197403,74.2225705 20.3423107,76 18.1497403,76 L18.0897403,76 C15.8971698,76 14.1197403,74.2225705 14.1197403,72.03 L14.1197403,44.97 C14.1197403,42.7774295 15.8971698,41 18.0897403,41 Z" id="Rectangle" fill="#F9E487" fill-rule="nonzero" transform="translate(18.119740, 58.500000) rotate(-90.000000) translate(-18.119740, -58.500000) "></path>
                    </g>
                </g>
            </g>
        </g>
    </g>
</svg>